<?xml version="1.0" encoding="UTF-8"?>
<svg id="Camada_1" xmlns="http://www.w3.org/2000/svg" version="1.1" viewBox="0 0 50 75">
  <!-- Generator: Adobe Illustrator 29.5.0, SVG Export Plug-In . SVG Version: 2.1.0 Build 137)  -->
  <defs>
    <style>
      .st0 {
        fill: #fff;
      }
    </style>
  </defs>
  <path class="st0" d="M19.44,12.49c1.54,0,2.78,1.12,2.78,2.5v10c0,1.39-1.24,2.5-2.78,2.5h-5.56v5h13.89v-2.5c0-1.39,1.24-2.5,2.78-2.5h16.66c1.54,0,2.78,1.12,2.78,2.5v10c0,1.39-1.24,2.5-2.78,2.5h-16.66c-1.54,0-2.78-1.12-2.78-2.5v-2.5h-13.89v15h13.89v-2.5c0-1.39,1.24-2.5,2.78-2.5h16.66c1.54,0,2.78,1.12,2.78,2.5v10c0,1.39-1.24,2.5-2.78,2.5h-16.66c-1.54,0-2.78-1.12-2.78-2.5v-2.5H11.1c-1.54,0-2.78-1.12-2.78-2.5v-27.51H2.77C1.24,27.5-.01,26.38-.01,25v-10c0-1.39,1.24-2.5,2.78-2.5h16.67ZM44.44,52.5h-11.11v5h11.11v-5ZM44.44,32.5h-11.11v5h11.11v-5ZM16.67,17.5H5.56v5h11.11v-5Z"/>
</svg>