<svg xmlns="http://www.w3.org/2000/svg" version="1.1" viewBox="0 0 50 75">
  <defs>
    <style>
      .st0 {
        fill: #fff;
      }
    </style>
  </defs>
  <path class="st0" d="M11.9,17.26v-4.76h4.76v4.76h14.29v-4.76h4.76v4.76h9.52c1.31,0,2.38,1.07,2.38,2.38v11.9h-4.76v-9.52h-7.14v4.76h-4.76v-4.76h-14.29v4.76h-4.76v-4.76h-7.14v33.33h14.29v4.76H2.38c-1.31,0-2.38-1.07-2.38-2.38V19.64c0-1.31,1.07-2.38,2.38-2.38h9.52ZM35.71,38.69c-5.26,0-9.52,4.26-9.52,9.52s4.26,9.52,9.52,9.52,9.52-4.26,9.52-9.52-4.26-9.52-9.52-9.52ZM21.43,48.21c0-7.89,6.4-14.29,14.29-14.29s14.29,6.4,14.29,14.29-6.4,14.29-14.29,14.29-14.29-6.4-14.29-14.29ZM33.33,41.07v8.13l5.46,5.46,3.37-3.37-4.06-4.06v-6.16h-4.76Z"/>
</svg>