<svg xmlns="http://www.w3.org/2000/svg" version="1.1" viewBox="0 0 50 75">
  <defs>
    <style>
      .st0 {
        fill: #fff;
      }
    </style>
  </defs>
  <path class="st0" d="M11.84,62.5c-6.54,0-11.84-5.3-11.84-11.84s5.3-11.84,11.84-11.84,11.84,5.3,11.84,11.84-5.3,11.84-11.84,11.84ZM38.16,36.18c-6.54,0-11.84-5.3-11.84-11.84s5.3-11.84,11.84-11.84,11.84,5.3,11.84,11.84-5.3,11.84-11.84,11.84ZM11.84,57.24c3.63,0,6.58-2.95,6.58-6.58s-2.95-6.58-6.58-6.58-6.58,2.95-6.58,6.58,2.95,6.58,6.58,6.58ZM38.16,30.92c3.63,0,6.58-2.95,6.58-6.58s-2.95-6.58-6.58-6.58-6.58,2.95-6.58,6.58,2.95,6.58,6.58,6.58ZM1.32,26.97c0-7.27,5.89-13.16,13.16-13.16h7.89v5.26h-7.89c-4.36,0-7.89,3.53-7.89,7.89v7.89H1.32v-7.89ZM48.68,40.13h-5.26v7.89c0,4.36-3.53,7.89-7.89,7.89h-7.89v5.26h7.89c7.27,0,13.16-5.89,13.16-13.16v-7.89Z"/>
</svg>